/* XPM */
static char *result[] = {
/* columns rows colors chars-per-pixel */
"64 64 139 2 ",
"   c #6D6771",
".  c #6F6A72",
"X  c #736C72",
"o  c #6C737B",
"O  c #EF611C",
"+  c #FA6D1D",
"@  c #F2651D",
"#  c #FE7A1C",
"$  c #EF4424",
"%  c #F04524",
"&  c #F44A25",
"*  c #FA4F26",
"=  c #FD5426",
"-  c #FC5628",
";  c #FD5C2A",
":  c #F55E32",
">  c #FC6122",
",  c #FC6926",
"<  c #FD642D",
"1  c #FD6C2C",
"2  c #FD7424",
"3  c #FD7D25",
"4  c #FD742B",
"5  c #EB6E3E",
"6  c #EA643E",
"7  c #F26136",
"8  c #FA6531",
"9  c #FD6930",
"0  c #F16E3D",
"q  c #8A7F7F",
"w  c #A7756A",
"e  c #BB7A64",
"r  c #BF796B",
"t  c #C96F5D",
"y  c #D97A57",
"u  c #D37D5D",
"i  c #E76E40",
"p  c #CC7660",
"a  c #EE9A0B",
"s  c #F29D0B",
"d  c #FC8715",
"f  c #FC8A17",
"g  c #FE851D",
"h  c #FB9512",
"j  c #FB9C15",
"k  c #FC931B",
"l  c #FE991B",
"z  c #EEA507",
"x  c #F0A608",
"c  c #FBA50D",
"v  c #FDAA0E",
"b  c #E9B900",
"n  c #FEB50B",
"m  c #FEBE0B",
"M  c #FCA215",
"N  c #FE8D21",
"B  c #EFC101",
"V  c #F3C401",
"C  c #FAC600",
"Z  c #F6CA01",
"A  c #FCCB03",
"S  c #FEC508",
"D  c #FED402",
"F  c #B59C4E",
"G  c #BA9A51",
"H  c #BDA051",
"J  c #9B8A69",
"K  c #86997A",
"L  c #B7976A",
"P  c #B1817B",
"I  c #B79870",
"U  c #9AA27F",
"Y  c #A2A46D",
"T  c #B5AB65",
"R  c #B1AA6D",
"E  c #A9A97C",
"W  c #C4A053",
"Q  c #C8A553",
"!  c #C98168",
"~  c #657782",
"^  c #867D82",
"/  c #887D81",
"(  c #0681AF",
")  c #0E84B1",
"_  c #1486B3",
"`  c #1B89B5",
"'  c #238CB7",
"]  c #258CB8",
"[  c #2A8EB8",
"{  c #2E90BA",
"}  c #3F90B7",
"|  c #3692BC",
" . c #3A94BD",
".. c #3F98BD",
"X. c #7B868F",
"o. c #7F9581",
"O. c #63889D",
"+. c #6B8C9F",
"@. c #5D8AA2",
"#. c #4390B4",
"$. c #4097BE",
"%. c #4398BF",
"&. c #6F8EA0",
"*. c #7490A2",
"=. c #7C96A7",
"-. c #789AAB",
";. c #6E9DB4",
":. c #789CB1",
">. c #7AA4BB",
",. c #3F98C0",
"<. c #4599C0",
"1. c #4B9CC2",
"2. c #529FC3",
"3. c #56A1C4",
"4. c #5CA4C6",
"5. c #61A6C7",
"6. c #64A7C8",
"7. c #66A9C9",
"8. c #6CABCA",
"9. c #71A8C6",
"0. c #878183",
"q. c #8E8184",
"w. c #9A8687",
"e. c #8B919C",
"r. c #9F9092",
"t. c #93969F",
"y. c #A68C8A",
"u. c #A88B88",
"i. c #AA9083",
"p. c #A7908C",
"a. c #95A09B",
"s. c #A2A681",
"d. c #A6A882",
"f. c #A3A788",
"g. c #8196A6",
"h. c #8D9CA8",
"j. c #919BA3",
"k. c #81A1B4",
"l. c None",
/* pixels */
"l.l.l.l.l.l.l.l.l.l.l.l.l.l.l.l.l.l.l.l.l.l.l.l.l.l.l.1.9.8.8.8.8.8.8.8.1.l.l.l.l.l.l.l.l.l.l.l.l.l.l.l.l.l.l.l.l.l.l.l.l.l.l.l.",
"l.l.l.l.l.l.l.l.l.l.l.l.l.l.l.l.l.l.l.l.l.l.l.l.8.7.<. .7.8.8.8.8.8.8.6.| $.8.4.l.l.l.l.l.l.l.l.l.l.l.l.l.l.l.l.l.l.l.l.l.l.l.l.",
"l.l.l.l.l.l.l.l.l.l.l.l.l.l.l.l.l.l.l.l.l.l.8.8.8.8.1.| 3.8.8.8.8.8.8.3.| 2.8.8.3.<.l.l.l.l.l.l.l.l.l.l.l.l.l.l.l.l.l.l.l.l.l.l.",
"l.l.l.l.l.l.l.l.l.l.l.l.l.l.l.l.l.l.l.l.8.8.8.8.8.8.4.| %.8.8.8.8.8.8.1.| 4.8.8.8.4.| <.l.l.l.l.l.l.l.l.l.l.l.l.l.l.l.l.l.l.l.l.",
"l.l.l.l.l.l.l.l.l.l.l.l.l.l.l.l.l.l.l.8.8.8.8.8.8.8.8.|  .8.8.8.8.8.8. .| 8.8.8.8.8.4.|  .l.l.l.l.l.l.l.l.l.l.l.l.l.l.l.l.l.l.l.",
"l.l.l.l.l.l.l.l.l.l.l.l.l.l.l.l.l.2. .4.8.8.8.8.8.8.8.<.| 4.8.8.8.8.5.| %.8.8.8.8.8.8.3.[ ( { l.l.l.l.l.l.l.l.l.l.l.l.l.l.l.l.l.",
"l.l.l.l.l.l.l.l.l.l.l.l.l.l.l.l.l.3.|  .4.8.8.8.8.8.8.3.| 3.8.8.8.8.3.| 2.8.8.8.8.8.8.4._ ( ' 1.l.l.l.l.l.l.l.l.l.l.l.l.l.l.l.l.",
"l.l.l.l.l.l.l.l.l.l.l.l.l.l.l.l.8.8.2.|  .4.8.8.8.8.8.:.0.e y : ; y e / e.8.8.8.8.8.4.| | ] |  .l.l.l.l.l.l.l.l.l.l.l.l.l.l.l.l.",
"l.l.l.l.l.l.l.l.l.l.l.l.l.l.l.8.8.8.8.3. . .4.8.8.r.: ; 9 9 1 - - 9 9 9 - % r 8.8.3.| | 3.3.| |  .l.l.l.l.l.l.l.l.l.l.l.l.l.l.l.",
"l.l.l.l.l.l.l.l.l.l.l.l.l.l.8.8.8.8.8.8.3.|  .;.u < = ; 9 9 9 - - < 9 9 ; * = : =.| | 3.8.8.| | | <.l.l.l.l.l.l.l.l.l.l.l.l.l.l.",
"l.l.l.l.l.l.l.l.l.l.l.l.l.l.8.8.8.8.8.8.8.3.@.i < < = ; 9 9 9 - - 9 9 9 ; = ; = - / 3.8.8.8.1.| | | 1.l.l.l.l.l.l.l.l.l.l.l.l.l.",
"l.l.l.l.l.l.l.l.l.l.l.l.l.8.8.8.8.8.8.8.8.u.8 9 9 < = < 9 9 < - = 9 9 9 ; = < = = - t 8.8.8.6.| | | ..l.l.l.l.l.l.l.l.l.l.l.l.l.",
"l.l.l.l.l.l.l.l.l.l.l.l.l.8.8.8.8.8.8.8.j.; < 9 9 < = < 9 9 9 = - < 9 9 < = < < = * % P 7.8.8.<.|  .| 1.l.l.l.l.l.l.l.l.l.l.l.l.",
"l.l.l.l.l.l.l.l.l.l.l.l.1.3.8.8.8.8.8.8.: = < 9 9 < = ; 9 9 9 - ; 9 9 9 ; = < 9 = * $ & 9.8.8.2.| { ] ` l.l.l.l.l.l.l.l.l.l.l.l.",
"l.l.l.l.l.l.l.l.l.l.l.l.| | |  .1.3.8.y.; = < 9 < < = ; 9 9 9 - = 9 9 9 ; = < 1 ; * $ & p 7.5.,.) ( ( ( [ l.l.l.l.l.l.l.l.l.l.l.",
"l.l.l.l.l.l.l.l.l.l.l.7.4.1...| | | } 5 ; = < 9 1 < = ; 9 9 9 ; - < 9 9 ; = < < < * $ & - #.| | ( ) ` ] <.l.l.l.l.l.l.l.l.l.l.l.",
"l.l.l.l.l.l.l.l.l.l.l.8.8.8.8.8.3.1.X.9 ; = < 9 4 D D D D D D D D D D D D D D 4 < * % & = w %.3.{ | | | %.l.l.l.l.l.l.l.l.l.l.l.",
"l.l.l.l.l.l.l.l.l.l.l.8.8.8.8.8.8.8.! 9 ; = < 9 4 D D D D D D D D D D D D D D 4 < * $ & = 6 8.8.,.| | |  .l.l.l.l.l.l.l.l.l.l.l.",
"l.l.l.l.l.l.l.l.l.l.l.8.8.8.8.8.8.8.0 9 ; = < 9 4 D D D Z D D Z D D D Z D D D 4 9 = % & = = 8.8.$.| | | | l.l.l.l.l.l.l.l.l.l.l.",
"l.l.l.l.l.l.l.l.l.l.l.8.8.8.8.8.8.9.9 9 ; = < 9 4 D D V B Z D B b D Z b Z D D 4 9 = % & = = >.8.$.| | | | l.l.l.l.l.l.l.l.l.l.l.",
"l.l.l.l.l.l.l.l.l.l.l.8.8.8.8.8.8.k.9 9 ; = < 9 4 D D V b Z D b b D Z b V D D 4 9 = $ % = = t.8.$.| | | | l.l.l.l.l.l.l.l.l.l.l.",
"l.l.l.l.l.l.l.l.l.l.l.8.8.8.8.8.8.h.9 9 ; = < 9 4 D D Z b A D b B D Z b Z D D 4 9 & % & = = y.8.$.| | | | 1.l.l.l.l.l.l.l.l.l.l.",
"l.l.l.l.l.l.l.l.l.l.l.8.8.8.8.8.8.h.9 9 < = < 9 4 D D D D D D D D D D D D D D 4 8 * $ & = = y.8.$.| | | | 1.l.l.l.l.l.l.l.l.l.l.",
"l.l.l.l.l.l.l.l.l.l.l.8.7.8.7.7.8.h.9 < ; = < 9 4 D D D D D D D D D D D D D D 4 9 - $ & = = y.8. .| | | | <.l.l.l.l.l.l.l.l.l.l.",
"l.l.l.l.l.l.l.l.l.l.1.| | | | | | O.9 9 ; = < 1 4 S A S A S A S S A S A S A S 4 9 * $ & = = ^ | ) ( ( ( ( [ l.l.l.l.l.l.l.l.l.l.",
"l.l.l.l.l.l.l.l.l.l.1.<.<.<.,.,...&.9 9 ; = < < 9 < = < 9 9 9 = - 9 9 9 ; = < 9 9 = $ % = = q.%._ ) ) ) _ [ l.l.l.l.l.l.l.l.l.l.",
"l.l.l.l.l.l.l.l.l.l.l.8.8.8.8.8.8.t.N N g 2 < 1 < < = ; 9 9 9 = = 9 9 9 ; = < 9 < = $ & = = y.8.$.| | | | 1.l.l.l.l.l.l.l.l.l.l.",
"l.l.l.l.l.l.l.l.l.l.l.8.8.8.8.8.8.d.D D D D M < 9 < = ; 9 9 9 = = 9 9 9 ; = < 9 8 * $ & = = y.8.$.| | | | 1.l.l.l.l.l.l.l.l.l.l.",
"l.l.l.l.l.l.l.l.l.l.l.8.8.8.8.8.8.d.D D D D D j j j h h j j j h h j j j j h j j j x z z x x L 8.$.| | | | 1.l.l.l.l.l.l.l.l.l.l.",
"l.l.l.l.l.l.l.l.l.l.l.8.8.8.8.8.8.R B B Z D D A C C C C C C C C C C C C C C C C C b b b b b W 8.$.| | | | 1.l.l.l.l.l.l.l.l.l.l.",
"l.l.l.l.l.l.l.l.l.l.l.8.8.8.8.8.8.T b b Z D D A C C C C C C C C C C C C C C C C C b b b b b W 8.$.| | | | 1.l.l.l.l.l.l.l.l.l.l.",
"l.l.l.l.l.l.l.l.l.l.l.8.8.8.8.8.8.E D D D D D Z C C C C C C C C C C C C C C C C C b b b b b W 8.$.| | | | 1.l.l.l.l.l.l.l.l.l.l.",
"l.l.l.l.l.l.l.l.l.l.l.6.6.6.6.6.7.s.D D D D S 9 9 < = ; 9 9 9 = = 8 9 9 ; = < 9 9 = $ % = = y.6.| [ { { { <.l.l.l.l.l.l.l.l.l.l.",
"l.l.l.l.l.l.l.l.l.l.1.| | | | | | 0.m m m v 2 9 9 < = ; 9 9 9 ; = 9 9 9 ; = < 9 9 * $ % = = / | _ ( ( ( ( [ l.l.l.l.l.l.l.l.l.l.",
"l.l.l.l.l.l.l.l.l.l.l.<.<.<.1.<.<.&.9 9 ; = < 9 9 < = ; 9 9 9 = = 9 9 9 ; = < 9 9 * $ % = = q.%.` _ _ _ _ { l.l.l.l.l.l.l.l.l.l.",
"l.l.l.l.l.l.l.l.l.l.l.8.8.8.8.8.8.h.9 8 ; = < 9 9 < = ; 9 9 9 = = 9 9 9 ; # l l l c c c v v I 8.$.| | | | 1.l.l.l.l.l.l.l.l.l.l.",
"l.l.l.l.l.l.l.l.l.l.l.8.8.8.8.8.8.h.4 9 ; = < 9 9 < = ; 9 9 9 = = 9 9 9 ; v D D D A C C C C Q 8.$.| | | | 1.l.l.l.l.l.l.l.l.l.l.",
"l.l.l.l.l.l.l.l.l.l.l.8.8.8.8.8.8.h.9 9 ; = < 9 9 < = ; 9 9 9 = = 9 9 9 ; v D D D C C C C C Q 8.$.| | | | 1.l.l.l.l.l.l.l.l.l.l.",
"l.l.l.l.l.l.l.l.l.l.l.8.8.8.8.8.8.h.9 9 ; = < 9 < < = ; 9 9 9 = = 9 9 9 ; v D D D C D A C C Q 8.$.| | | | 1.l.l.l.l.l.l.l.l.l.l.",
"l.l.l.l.l.l.l.l.l.l.l.8.8.8.8.8.8.h.9 9 ; = < 9 9 < = ; 9 9 9 = = 9 9 9 ; v D D D A D A C C Q 8.$.| | | | 1.l.l.l.l.l.l.l.l.l.l.",
"l.l.l.l.l.l.l.l.l.l.l.8.8.8.8.8.8.h.9 9 < = < < 9 < = ; 9 9 9 = = 9 9 9 ; v D D D A D A C C Q 8...| | | | 1.l.l.l.l.l.l.l.l.l.l.",
"l.l.l.l.l.l.l.l.l.l.l.4.4.4.4.4.4.=.9 9 ; = < 9 9 < = ; 9 9 9 ; = 9 9 9 ; v D D D A D A C C W 4.| [ [ ] [ ,.l.l.l.l.l.l.l.l.l.l.",
"l.l.l.l.l.l.l.l.l.l.1.|  .| | | | O.9 9 ; = < 9 9 < = ; 9 9 9 = = 9 9 9 ; v D D D A D D C C F | ) ( ( ( ( [ l.l.l.l.l.l.l.l.l.l.",
"l.l.l.l.l.l.l.l.l.l.l.3.1.1.1.1.1.*.9 9 ; = < 9 9 < = ; 9 9 9 = = 9 9 9 ; v D D D A D A C C H 1.' _ ` ` _ | l.l.l.l.l.l.l.l.l.l.",
"l.l.l.l.l.l.l.l.l.l.l.8.8.8.8.8.8.h.9 9 ; = < 9 9 < = ; 9 9 9 = ; 9 9 9 ; v D D D A D Z C C Q 8...| | | | 1.l.l.l.l.l.l.l.l.l.l.",
"l.l.l.l.l.l.l.l.l.l.l.8.8.8.8.8.8.h.9 9 ; = < 9 9 < = ; 9 9 9 = = 9 9 9 ; v D D D C A C C C Q 8...| | | | 1.l.l.l.l.l.l.l.l.l.l.",
"l.l.l.l.l.l.l.l.l.l.l.8.8.8.8.8.8.h.9 9 ; = < 9 9 < = ; 9 9 9 = = 9 9 9 ; v D D D C C C C C Q 8.$.| | | | 1.l.l.l.l.l.l.l.l.l.l.",
"l.l.l.l.l.l.l.l.l.l.l.8.8.8.8.8.8.h.9 < ; = < 9 9 < = ; 9 9 9 = = 9 9 9 ; v D D D A C C C C Q 8.$.| | | | 1.l.l.l.l.l.l.l.l.l.l.",
"l.l.l.l.l.l.l.l.l.l.l.8.8.8.8.8.8.h.1 9 ; = < 9 9 < = ; 9 9 9 = = 9 9 9 ; = < 9 8 * % & = = u.8.$.| | | | 1.l.l.l.l.l.l.l.l.l.l.",
"l.l.l.l.l.l.l.l.l.l.l.8.8.8.8.8.8.j.N 4 2 > < 9 9 < = ; 9 9 9 = = 9 9 9 ; = < 9 9 * $ & = = y.8.$.| | | | 1.l.l.l.l.l.l.l.l.l.l.",
"l.l.l.l.l.l.l.l.l.l.l.3.3.3.3.3.3.U D D D D l < < < = ; 9 9 9 = = 9 9 9 ; = < < 9 = % & = = w.2.[ ' ' ' ]  .l.l.l.l.l.l.l.l.l.l.",
"l.l.l.l.l.l.l.l.l.l.1.| |  .| | | K D D D D D l l k d f k k k f f k k l f d k k k s a s s s J | _ ( ( ( ( [ l.l.l.l.l.l.l.l.l.l.",
"l.l.l.l.l.l.l.l.l.l.l.3.3.2.2.2.3.Y V V D D D C C C C C C C C C C C C C C C C C C b b b b b G 2.' ` ` ' ` | l.l.l.l.l.l.l.l.l.l.",
"l.l.l.l.l.l.l.l.l.l.l.8.8.8.8.8.8.T b b V D D C C C C C C C C C C C C C C C C C b b b b b b W 8.$.| | | | 1.l.l.l.l.l.l.l.l.l.l.",
"l.l.l.l.l.l.l.l.l.l.l.8.8.8.8.8.8.E Z Z D D D A C C C C C C C V C C C C C C C C b b b b b b W 8.$.| | | | 1.l.l.l.l.l.l.l.l.l.l.",
"l.l.l.l.l.l.l.l.l.l.l.8.8.8.8.8.8.d.D D D D A 4 4 1 > , 4 4 4 ; ; 4 4 4 , ; 4 , + + O @ + + i.8.$.| | | | 1.l.l.l.l.l.l.l.l.l.l.",
"l.l.l.l.l.l.l.l.l.l.l.8.8.8.8.8.8.f.S S S n 3 9 < < = ; 9 9 < = = < 1 9 ; = ; = = * % & = = y.8.$.| | | | 1.l.l.l.l.l.l.l.l.l.l.",
"l.l.l.l.l.l.l.l.l.l.l.8.8.8.8.8.8.j.< 9 ; = ; < < < = ; 9 < < = - < < < - % = = = * $ & = = u.8.$.| | | | 1.l.l.l.l.l.l.l.l.l.l.",
"l.l.l.l.l.l.l.l.l.l.l.8.8.8.8.8.8.y.= = & $ * = - * $ & = = = % % = = = % $ * = = * $ & = = y.8.$.| | | | 1.l.l.l.l.l.l.l.l.l.l.",
"l.l.l.l.l.l.l.l.l.l.l.8.8.8.8.8.8.y.= = & $ * = = * $ & = = = % % = = = & $ * = = * $ & = = y.8...| | | | 1.l.l.l.l.l.l.l.l.l.l.",
"l.l.l.l.l.l.l.l.l.l.l.8.8.8.8.8.8.-.~ o .   X X X X   . X X X   . X X X .   X X X X   . o ~ -.7. .| | | | 1.l.l.l.l.l.l.l.l.l.l.",
"l.l.l.l.l.l.l.l.l.l.l.1.1.1.1.1.1. .( ( ( ( ( ( ( ( ( ( ( ( ( ( ( ( ( ( ( ( ( ( ( ( ( ( ( (  . .| | | | | 1.l.l.l.l.l.l.l.l.l.l.",
"l.l.l.l.l.l.l.l.l.l.1.| | | | | | [ ( ( ( ( ( ( ( ( ( ( ( ( ( ( ( ( ( ( ( ( ( ( ( ( ( ( ( ( [ | | | | | | 1.l.l.l.l.l.l.l.l.l.l.",
"l.l.l.l.l.l.l.l.l.l.1.| | | | | | [ ( ( ( ( ( ( ( ( ( ( ( ( ( ( ( ( ( ( ( ( ( ( ( ( ( ( ( ( [ | | | | | | 1.l.l.l.l.l.l.l.l.l.l."
};