/* XPM */
static char *_442a332a4e449c6e721c72786b5552ecBgOYQb9XSW7e6qk[] = {
/* columns rows colors chars-per-pixel */
"64 64 212 2 ",
"   c None",
".  c black",
"X  c #010000",
"o  c #010101",
"O  c #020101",
"+  c #030201",
"@  c #020202",
"#  c #030202",
"$  c gray1",
"%  c #040202",
"&  c #040302",
"*  c #050302",
"=  c #050303",
"-  c #050403",
";  c #060403",
":  c #040404",
">  c gray2",
",  c #070504",
"<  c #060607",
"1  c #060707",
"2  c #090705",
"3  c #0A0605",
"4  c #0A0706",
"5  c #0C0706",
"6  c #0B0806",
"7  c #0B0807",
"8  c #0D0806",
"9  c #0C0907",
"0  c #0D0907",
"q  c #070708",
"w  c #070808",
"e  c #0D0A08",
"r  c #0E0A08",
"t  c #0F0B09",
"y  c #0C0D0E",
"u  c #0D0E0E",
"i  c #0E0E0F",
"p  c #110C0A",
"a  c #110D0B",
"s  c #120D0B",
"d  c #1E140E",
"f  c #0E0F11",
"g  c #101112",
"h  c #111212",
"j  c #121213",
"k  c #131415",
"l  c #141516",
"z  c #1C1410",
"x  c #1F1510",
"c  c #1F1712",
"v  c #1B1C1D",
"b  c #1D1E1F",
"n  c #221914",
"m  c #251B15",
"M  c #261B16",
"N  c #271C17",
"B  c #2E1D16",
"V  c #2E1E16",
"C  c #2C201A",
"Z  c #2F221B",
"A  c #30231C",
"S  c #32241D",
"D  c #34261F",
"F  c #35271F",
"G  c #1C1D20",
"H  c #1E1F20",
"J  c #1F2021",
"K  c #1E2022",
"L  c #1F2122",
"P  c #2A2B2D",
"I  c #382921",
"U  c #3B2B22",
"Y  c #2C2E30",
"T  c #333537",
"R  c #412F26",
"E  c #433127",
"W  c #4D3224",
"Q  c #443128",
"!  c #4A362C",
"~  c #4D382D",
"^  c #4E392E",
"/  c #533627",
"(  c #503A2F",
")  c #533C30",
"_  c #543D31",
"`  c #553E32",
"'  c #594134",
"]  c #5C4336",
"[  c #5E4437",
"{  c #664332",
"}  c #664A3C",
"|  c #684B3D",
" . c #694C3D",
".. c #6C4F3F",
"X. c #3B3E40",
"o. c #3F4244",
"O. c #42464B",
"+. c #484B4E",
"@. c #4F5255",
"#. c #515457",
"$. c #55595C",
"%. c #6D4F40",
"&. c #755545",
"*. c #785746",
"=. c #7D5B49",
"-. c #595D60",
";. c #5D6165",
":. c #5F6367",
">. c #606468",
",. c #616569",
"<. c #63676B",
"1. c #6A6F73",
"2. c #6C7175",
"3. c #6E7377",
"4. c #6F777F",
"5. c #74797D",
"6. c #757A7E",
"7. c #805D4B",
"8. c #825F4C",
"9. c #85614E",
"0. c #886350",
"q. c #8A6451",
"w. c #8C6652",
"e. c #8F6854",
"r. c #906954",
"t. c #9D725C",
"y. c #A2755F",
"u. c #B57758",
"i. c #B87959",
"p. c #A37760",
"a. c #AA7B63",
"s. c #AC7D64",
"d. c #C17D5B",
"f. c #B08067",
"g. c #B28168",
"h. c #B8866C",
"j. c #BB886E",
"k. c #D58965",
"l. c #D78B66",
"z. c #D68C68",
"x. c #C18C71",
"c. c #C58F74",
"v. c #C79175",
"b. c #D1987A",
"n. c #D99E7F",
"m. c #E4936C",
"M. c #E4936D",
"N. c #E5966F",
"B. c #717981",
"V. c #797E82",
"C. c #7A7F83",
"Z. c #7D8286",
"A. c #7F8488",
"S. c #81868A",
"D. c #83898E",
"F. c #858B8F",
"G. c #858B90",
"H. c #8A9094",
"J. c #8C9296",
"K. c #8D9397",
"L. c #8E9498",
"P. c #8D96A1",
"I. c #8D97A2",
"U. c #959BA0",
"Y. c #989EA3",
"T. c #999FA4",
"R. c #9EA5AA",
"E. c #A2A9AE",
"W. c #A5ACB1",
"Q. c #A9B1B6",
"!. c #ADB4BA",
"~. c #B0B7BD",
"^. c #B1B8BE",
"/. c #DA9F80",
"(. c #DB9F80",
"). c #DEA182",
"_. c #E1A384",
"`. c #E5A786",
"'. c #E6A787",
"]. c #E8A988",
"[. c #EAAA88",
"{. c #EAAA89",
"}. c #B4BBC1",
"|. c #B5BDC3",
" X c #B9C1C7",
".X c #BAC2C8",
"XX c #BBC3C9",
"oX c #B8C4D2",
"OX c #C0C9CF",
"+X c #C8D0D7",
"@X c #C9D1D8",
"#X c #CED6DE",
"$X c #C6D4E3",
"%X c #C7D5E4",
"&X c #D0D9E0",
"*X c #DDE7EE",
"=X c #D7E5F6",
"-X c #DFE8F0",
";X c #DCE9F8",
":X c #DEECFB",
">X c #DCEBFC",
",X c #DDECFC",
"<X c #DEECFC",
"1X c #DFECFC",
"2X c #DEEDFC",
"3X c #DFEDFC",
"4X c #E0EDFD",
"5X c #E7F1F9",
"6X c #EAF4FC",
"7X c #EAF4FE",
"8X c #EBF6FE",
"9X c #ECF6FE",
/* pixels */
"      . . . . . . . . . . . . . . . . . . . . . . . . . . . . . . . . . . . . . . . . . . . . . . . . . . . . . . . . . .       ",
"    . . 1 L L L L L L L L L L L L L L L L L L L L L L L L L L L L L L L L L L L L L L L L L L L L L L L L L L L L L L 1 . .     ",
"  . u Y.5X9X9X9X9X9X9X9X9X9X9X9X9X9X9X9X9X9X9X9X9X9X9X9X9X9X9X9X9X9X9X9X9X9X9X9X9X9X9X9X9X9X9X9X9X9X9X9X9X9X9X9X9X9X6X;XP.u .   ",
". . T.9X9X9X9X9X9X9X9X9X9X9X9X9X9X9X9X9X9X9X9X9X9X9X9X9X9X9X9X9X9X9X9X9X9X9X9X9X9X9X9X9X9X9X9X9X9X9X9X9X9X9X9X9X9X9X9X6X>XP.. . ",
". w 5X9X9X9X9X9X9X9X9X9X9X9X9X9X9X9X9X9X9X9X9X9X9X9X9X9X9X9X9X9X9X9X9X9X9X9X9X9X9X9X9X9X9X9X9X9X9X9X9X9X9X9X9X9X9X9X9X9X2X=X1 . ",
". H 9X9X9X9X9X9X9X9X9X9X9X9X9X9X9X9X9X9X9X9X9X9X9X9X9X9X9X9X9X9X9X9X9X9X9X9X9X9X9X9X9X9X9X9X9X9X9X9X9X9X9X9X9X9X9X9X9X9X4X>XH . ",
". H 9X9X9X9X9X9X9X9X9X9X9X9X9X9X9X9X9X9X9X9X9X9X9X9X9X9X9X9X9X9X9X9X9X9X9X9X9X9X9X9X9X9X9X9X9X9X9X9X9X9X9X9X9X9X9X9X9X9X4X>XH . ",
"1 >.9X9X9X9X9X9X9X9X9X9X9X9X9X9X9X9X9X9X9X9X9X9X9X9X9X9X9X9X9X9X9X9X9X9X9X9X9X9X9X9X9X9X9X9X9X9X9X9X9X9X9X9X9X9X9X9X9X9X4X>XH . ",
"  9X9X9X9X9X9X9X9X9X9X9X9X9X9X9X9X9X9X9X9X9X9X9X9X9X9X9X9X9X9X9X9X9X9X9X9X9X9X9X9X9X9X9X9X9X9X9X9X9X9X9X9X9X9X9X9X9X9X9X2X>XH . ",
"  9X9X9X9X9X9X9X9X9X9X9X9X9X9X9X9X9X9X9X9X9X9X9X9X9X9X9X9X9X9X9X9X9X9X9X9X9X9X9X9X9X9X9X9X9X9X9X9X9X9X9X9X9X9X9X9X9X9X9X2X>XH . ",
"  OX9X9X9X9X9X9X9X9X9X9X9X9X9X9X9X9X9X9X9X9X9X9X9X9X9X9X9X9X9X9X9X9X9X9X9X9X9X-XL.;.@.@.@.-.J.5X9X9X9X9X9XW.>.#.5.&X9X9X2X>XH . ",
". P 9X9X9X9X9X9X9X9X9X9X9X9X9X9X9X9X9X9X9X9X9X9X9X9X9X9X9X9X9X9X9X9X9X9X9X9X~.l . . . . . . . o.6X9X9X9X5.. . . . u +X9X2X>XH . ",
". H 9X9X9X9X9X9X9X9X9X9X9X9X9X9X9X9X9X9X9X9X9X9X9X9X9X9X9X9X9X9X9X9X9X9X9XQ.q . ^ t.j.j.j.f.Z . Q.9X9X*X. s y.h. .. $.9X2X>XH . ",
". k 6X9X9X9X9X9X9X9X9X9X9X9X9X9X9X9X9X9X9X9X9X9X9X9X9X9X9X9X9X9X9X9X9X9XR.q . q.{.{.{.{.{.{.0.. S.9X9X X. ( {.{./.. Y 9X2X>XH . ",
". . +.3.3.3.3.3.3.3.S.OX9X9X9X9X9X9X^.C.3.3.3.3.3.3.3.3.3.3.3.3.3.3.1.X.. . M %.%.%.%.%.%.%.R . Z.9X9X|.. N %.%.| . P 9X2X>XH . ",
"  . . . . . . . . . . . H.9X9X9X9X>.. . . . . . . . . . . . . . . . . . . . . . . . . . . . . . Z.9X9X|.. . . . . . P 9X2X>XH . ",
"    . 1 w.w.w.w.w.w.7.6 1 *X9X9XXX. z 0.w.I . } w.w.w.w.w.w.w.w.w.w.w.w.w.w.w.w.} . I w.w.w.` . Z.9X9X|.. S w.w.9.. P 9X2X>XH . ",
"    . 0 {.{.{.{.{.{.{.` . }.9X9XJ.. =.{.{.[ . a.{.{.{.{.{.{.{.{.{.{.{.{.{.{.{.{.a.. [ {.{.{.p.. ;.9X9XU.. ..{.{.).. P 9X2X>XH . ",
"    . 0 {.{.{.{.{.{.{.] . !.9X9XF.. 8.{.{.[ . a.{.{.{.{.{.{.{.{.{.{.{.{.{.{.{.{.a.. [ {.{.{.n.s 1 3.A.h . g.{.{.).. P 9X2X>XH . ",
"    . 0 {.{.{.{.{.{.{.] . !.9X9XF.. 8.{.{.[ . a.{.{.{.{.{.{.{.{.{.{.{.{.{.{.{.{.a.. [ {.{.{.{.p.t . . . *.{.{.{.).. P 9X2X>XH . ",
"    . 0 {.{.{.{.{.{.{.] . !.9X9XF.. 8.{.{.[ . a.{.{.{.{.{.{.{.{.{.{.{.{.{.{.{.{.a.. [ {.{.{.{.{.b.r.9.x.{.{.{.{.).. P 9X2X>XH . ",
"    . 0 {.{.{.{.{.{.{.] . !.9X9XF.. 8.{.{.[ . a.{.{.{.{.{.{.{.{.{.{.{.{.{.{.{.{.a.. [ {.{.{.{.{.{.{.{.{.{.{.{.{.).. P 9X2X>XH . ",
"    . 0 {.{.{.{.{.{.{.] . !.9X9XF.. 8.{.{.[ . a.{.{.{.{.{.{.{.{.{.{.{.{.{.{.{.{.a.. [ {.{.{.{.{.{.{.{.{.{.{.{.{.).. P 9X2X>XH . ",
"    . 0 {.{.{.{.{.{.{.] . !.9X9XF.. 8.{.{.[ . a.{.{.{.{.{.{.{.{.{.{.{.{.{.{.{.{.a.. [ {.{.{.{.{.{.{.{.{.{.{.{.{.).. P 9X2X>XH . ",
"    . 0 {.{.{.{.{.{.{.] . !.9X9XF.. 8.{.{.[ . a.{.{.{.{.{.{.{.{.{.{.{.{.{.{.{.{.a.. [ {.{.{.{.{.{.{.{.{.{.{.{.{.).. P 9X2X>XH . ",
"    . 0 {.{.{.{.{.{.{.] . !.9X9XF.. 8.{.{.[ . a.{.{.{.{.{.{.{.{.{.{.{.{.{.{.{.{.a.. [ {.{.{.{.{.{.{.{.{.{.{.{.{.).. P 9X2X>XH . ",
"    . - [ [ [ [ [ [ [ M . E.9X9XC.. D [ [ M . Q [ [ [ [ [ [ [ [ [ [ [ [ [ [ [ [ Q . M [ [ [ [ [ [ [ [ [ [ [ [ [ ' . L 9X:X>Xh . ",
"    . . . . . . . . . . . T @XXXv . . . . . . . . . . . . . . . . . . . . . . . . . . . . . . . . . . . . . . . . . . D.$X4.. . ",
"    . 2 s.s.s.s.s.s.s.s.D . . . . ) s.s.s.s.s.s.s.s.s.s.s.s.s.6 6 s.s.s.s.s.s.s.s.s.s.s.s.s.s.s.s.s.s.s.s.s.s.s.s.e.= . . . .   ",
"    . 0 {.{.{.{.{.{.{.{._.&.D I q.{.{.{.{.{.{.{.{.{.{.{.{.{.{.t t {.{.{.{.{.{.{.{.{.{.{.{.{.{.{.{.{.{.{.{.{.{.{.{.{.u.W . .     ",
"    . 0 {.{.{.{.{.{.{.{.{.{.{.{.{.{.{.{.{.{.{.{.{.{.{.{.{.{.{.t t {.{.{.{.{.{.{.{.{.{.{.{.{.{.{.{.{.{.{.{.{.{.{.{.{.N.m.0 .     ",
"    . 0 {.{.{.{.{.{.{.{.{.{.{.{.{.{.{.{.{.{.{.{.{.{.{.{.{.{.{.t t {.{.{.{.{.{.{.{.{.{.{.{.{.{.{.{.{.{.{.{.{.{.{.{.{.N.m.0 .     ",
"    . 0 {.{.{.{.{.{.{.{.{.{.{.{.{.{.{.{.{.{.{.{.{.{.{.{.{.{.{.t t {.{.{.{.{.{.{.{.{.{.{.{.{.{.{.{.{.{.{.{.{.{.{.{.{.N.m.0 .     ",
"    . 0 {.{.{.{.{.{.{.{.{.{.{.{.{.{.{.{.{.{.{.{.{.{.{.{.{.{.{.t t {.{.{.{.{.{.{.{.{.{.{.{.{.{.{.{.{.{.{.{.{.{.{.{.{.N.m.0 .     ",
"    . 0 {.{.{.{.{.{.{.{.{.{.{.{.{.{.{.{.{.{.{.{.{.{.{.{.{.{.{.t t {.{.{.{.{.{.{.{.{.{.{.{.{.{.{.{.{.{.{.{.{.{.{.{.{.i./ . .     ",
"    . 0 {.{.{.{.{.{.{.{.{.{.{.{.{.{.{.{.{.{.{.{.{.{.{.{.{.{.{.t t {.{.{.{.{.{.{.{.{.{.{.{.{.{.{.{.{.{.{.{.{.{.{.{.f.1 . . . .   ",
"    . 0 {.{.{.{.{.{.{.{.{.{.{.{.{.{.{.{.{.{.{.{.{.{.{.{.{.{.{.t t {.{.{.{.{.{.{.{.{.{.{.{.{.{.{.{.{.{.{.{.{.{.{.{.A . G.%XB.. . ",
"    . 0 {.{.{.{.{.{.{.{.{.{.{.{.{.{.{.{.{.{.{.{.{.{.{.{.{.{.{.t t {.{.{.{.{.{.{.{.{.{.{.{.{.{.{.{.{.{.{.{.{.{.{.'.= b 9X2X>Xf . ",
"    . = ^ ^ ^ ^ ^ ^ ^ ^ ^ ^ ^ ^ ^ ^ ^ ^ ^ ^ ^ ^ ^ ^ ^ ^ ^ ^ ^ = = ^ ^ ^ ^ ^ ^ ^ ^ ^ ^ ^ ^ ^ ^ ^ ^ ^ ^ ^ ^ ^ ^ ^ ^ . w #X2XoX. . ",
"    . . . . . . . . . . . . . . . . . . . . . . . . . . . . . . . . . . . . . . . . . . . . . . . . . . . . . . . . . h O.u .   ",
"    . 2 j.j.j.j.j.j.j.j.j.j.j.j.j.j.j.j.j.! . 0.j.j.j.j.j.j.j.j.j.j.j.j.j.j.j.j.0.. ! j.j.j.j.j.j.j.j.j.j.j.j.j.j.j.{ - . . .   ",
"    . 0 {.{.{.{.{.{.{.{.{.{.{.{.{.{.{.{.{.[ . a.{.{.{.{.{.{.{.{.{.{.{.{.{.{.{.{.a.. [ {.{.{.{.{.{.{.{.{.{.{.{.{.{.{.N.k.2 .     ",
"    . 0 {.{.{.{.{.{.{.{.{.{.{.{.{.{.{.{.{.[ . a.{.{.{.{.{.{.{.{.{.{.{.{.{.{.{.{.a.. [ {.{.{.{.{.{.{.{.{.{.{.{.{.{.{.N.m.0 .     ",
"    . 0 {.{.{.{.{.{.{.{.{.{.{.{.{.{.{.{.{.[ . a.{.{.{.{.{.{.{.{.{.{.{.{.{.{.{.{.a.. [ {.{.{.{.{.{.{.{.{.{.{.{.{.{.{.N.m.0 .     ",
"    . 0 {.{.{.{.{.{.{.{.{.{.{.{.{.{.{.{.{.[ . a.{.{.{.{.{.{.{.{.{.{.{.{.{.{.{.{.a.. [ {.{.{.{.{.{.{.{.{.{.{.{.{.{.{.N.m.0 .     ",
"    . 0 {.{.{.{.{.{.{.{.{.{.{.{.{.{.{.{.{.[ . a.{.{.{.{.{.{.{.{.{.{.{.{.{.{.{.{.a.. [ {.{.{.{.{.{.{.{.{.{.{.{.{.{.{.N.m.0 .     ",
"    . 0 {.{.{.{.{.{.{.{.{.{.{.{.{.{.{.{.{.[ . a.{.{.{.{.{.{.{.{.{.{.{.{.{.{.{.{.a.. [ {.{.{.{.{.{.{.{.{.{.{.{.{.{.{.N.m.0 .     ",
"    . 0 {.{.{.{.{.{.{.{.{.{.{.{.{.{.{.{.{.[ . a.{.{.{.{.{.{.{.{.{.{.{.{.{.{.{.{.a.. [ {.{.{.{.{.{.{.{.{.{.{.{.{.{.{.N.m.0 .     ",
"    . 0 {.{.{.{.{.{.{.{.{.{.{.{.{.{.{.{.{.[ . a.{.{.{.{.{.{.{.{.{.{.{.{.{.{.{.{.a.. [ {.{.{.{.{.{.{.{.{.{.{.{.{.{.{.N.m.0 .     ",
"    . 0 {.{.{.{.{.{.{.{.{.{.{.{.{.{.{.{.{.[ . a.{.{.{.{.{.{.{.{.{.{.{.{.{.{.{.{.a.. [ {.{.{.{.{.{.{.{.{.{.{.{.{.{.{.N.m.0 .     ",
"    . . Z Z Z Z Z Z Z Z Z Z Z Z Z Z Z Z Z s . n Z Z Z Z Z Z Z Z Z Z Z Z Z Z Z Z n . s Z Z Z Z Z Z Z Z Z Z Z Z Z Z Z B B . .     ",
"    . . . . . . . . . . . . . . . . . . . . . . . . . . . . . . . . . . . . . . . . . . . . . . . . . . . . . . . . . . . .     ",
"    . 0 /././././././././././././././././././././././././././.t t /././././././././././././././././././././././././.z.k.5 .     ",
"    . 0 {.{.{.{.{.{.{.{.{.{.{.{.{.{.{.{.{.{.{.{.{.{.{.{.{.{.{.t t {.{.{.{.{.{.{.{.{.{.{.{.{.{.{.{.{.{.{.{.{.{.{.{.{.N.m.0 .     ",
"    . 0 {.{.{.{.{.{.{.{.{.{.{.{.{.{.{.{.{.{.{.{.{.{.{.{.{.{.{.t t {.{.{.{.{.{.{.{.{.{.{.{.{.{.{.{.{.{.{.{.{.{.{.{.{.N.m.0 .     ",
"    . 0 {.{.{.{.{.{.{.{.{.{.{.{.{.{.{.{.{.{.{.{.{.{.{.{.{.{.{.t t {.{.{.{.{.{.{.{.{.{.{.{.{.{.{.{.{.{.{.{.{.{.{.{.{.N.m.0 .     ",
"    . 0 {.{.{.{.{.{.{.{.{.{.{.{.{.{.{.{.{.{.{.{.{.{.{.{.{.{.{.t t {.{.{.{.{.{.{.{.{.{.{.{.{.{.{.{.{.{.{.{.{.{.{.{.{.N.m.0 .     ",
"    . 0 {.{.{.{.{.{.{.{.{.{.{.{.{.{.{.{.{.{.{.{.{.{.{.{.{.{.{.t t {.{.{.{.{.{.{.{.{.{.{.{.{.{.{.{.{.{.{.{.{.{.{.{.{.N.m.0 .     ",
"    . 0 {.{.{.{.{.{.{.{.{.{.{.{.{.{.{.{.{.{.{.{.{.{.{.{.{.{.{.t t {.{.{.{.{.{.{.{.{.{.{.{.{.{.{.{.{.{.{.{.{.{.{.{.{.N.m.0 .     ",
"    . 0 {.{.{.{.{.{.{.{.{.{.{.{.{.{.{.{.{.{.{.{.{.{.{.{.{.{.{.t t {.{.{.{.{.{.{.{.{.{.{.{.{.{.{.{.{.{.{.{.{.{.{.{.{.N.m.0 .     ",
"    . 0 {.{.{.{.{.{.{.{.{.{.{.{.{.{.{.{.{.{.{.{.{.{.{.{.{.{.{.t t {.{.{.{.{.{.{.{.{.{.{.{.{.{.{.{.{.{.{.{.{.{.{.{.{.N.m.0 .     ",
"    . . v.{.{.{.{.{.{.{.{.{.{.{.{.{.{.{.{.{.{.{.{.{.{.{.{.{.{.t t {.{.{.{.{.{.{.{.{.{.{.{.{.{.{.{.{.{.{.{.{.{.{.{.{.m.d.. .     ",
"      . - z z z E '.{.c.Z z z z z z z z z z z z z z z z z z z . . z z z z z z z z z z z z z z z z z z z z z z z z z d - .       ",
"        . . . . =       . . . . . . . . . . . . . . . . . . . . . . . . . . . . . . . . . . . . . . . . . . . . . . . .         "
};